<svg xmlns="http://www.w3.org/2000/svg" viewBox="0 0 640 480"><defs><style>.cls-1,.cls-2{fill:#fff;}.cls-2,.cls-3{stroke:#000;stroke-miterlimit:10;}.cls-2{stroke-width:3px;}.cls-3{fill:none;}</style></defs><g id="Capa_4" data-name="Capa 4"><rect width="640" height="480"/></g><g id="Capa_2" data-name="Capa 2"><polygon class="cls-1" points="320.25 53.5 228 164 409.5 164 320.25 53.5"/><polygon class="cls-1" points="180.5 146.5 218.5 165.5 297.5 69.5 180.5 146.5"/><polygon class="cls-1" points="177.5 151.5 173.5 294.5 216.5 169.5 177.5 151.5"/><polygon class="cls-1" points="225.5 171.5 320.5 330.5 411.5 170.5 225.5 171.5"/><polygon class="cls-1" points="220.5 176.5 173.5 315.5 315.5 335.5 220.5 176.5"/><polygon class="cls-1" points="317.5 342.5 186.5 323.5 320.5 400.5 317.5 342.5"/><polygon class="cls-1" points="324.5 342.5 459.5 323.5 327.5 400.5 324.5 342.5"/><polygon class="cls-1" points="417.5 174.5 472.5 314.5 325.5 335.5 417.5 174.5"/><polygon class="cls-1" points="468.5 147.5 472.5 297.5 421.5 169.5 468.5 147.5"/><polygon class="cls-1" points="337.5 64.5 463.5 141.5 417.5 163.5 337.5 64.5"/><line class="cls-2" x1="234.5" y1="138.5" x2="223.5" y2="152.5"/></g><g id="Capa_3" data-name="Capa 3"><text/><path class="cls-3" d="M319.5,120.5"/><path d="M243,274.72a11,11,0,0,1-.53,6.27,11.53,11.53,0,0,1-4,5l-.57.42a11.58,11.58,0,0,1-12.07.88,10.12,10.12,0,0,1-.44,5.35,8.62,8.62,0,0,1-3,4.11l-.9.66a10.93,10.93,0,0,1-5.66,2.22,10.36,10.36,0,0,1-5.78-1.24,16.44,16.44,0,0,1-7.87-10.68,10.46,10.46,0,0,1,.54-5.89,10.85,10.85,0,0,1,3.8-4.75l.89-.66a8.6,8.6,0,0,1,4.88-1.66,10,10,0,0,1,5.22,1.25,11.77,11.77,0,0,1,.62-6.35,11,11,0,0,1,3.77-5l.56-.41a11.56,11.56,0,0,1,6-2.35,11.08,11.08,0,0,1,6.14,1.35A17.94,17.94,0,0,1,243,274.72ZM217.09,282a4.11,4.11,0,0,0-2.33-.29,5.55,5.55,0,0,0-2.38,1l-.33.25a4.73,4.73,0,0,0-1.56,1.86,3.91,3.91,0,0,0-.3,2.22,5.07,5.07,0,0,0,1,2.28,5,5,0,0,0,1.88,1.61,3.91,3.91,0,0,0,2.23.36,4.69,4.69,0,0,0,2.25-.94l.36-.26a5.31,5.31,0,0,0,1.66-1.94,4.09,4.09,0,0,0,.4-2.3,5.18,5.18,0,0,0-2.86-3.89Zm14.41-11.16a4.69,4.69,0,0,0-2.65-.45,5.33,5.33,0,0,0-2.62,1.08l-.33.24a4.5,4.5,0,0,0-1.84,4.59,6.4,6.4,0,0,0,1.22,2.67,6.65,6.65,0,0,0,2.18,2,4.57,4.57,0,0,0,2.51.53,4.62,4.62,0,0,0,2.45-.95l.35-.26a5.29,5.29,0,0,0,1.8-2.17,4.61,4.61,0,0,0,.33-2.65,6.18,6.18,0,0,0-1.18-2.68A6,6,0,0,0,231.5,270.81Z"/><path d="M347.37,209l-14.62,19.22a11.4,11.4,0,0,0-1.54,2.65,7,7,0,0,0-.54,2.54v.06a3.26,3.26,0,0,0,1.12,2.66A4.73,4.73,0,0,0,335,237a4.25,4.25,0,0,0,3.22-1.3,6.28,6.28,0,0,0,1.5-3.71v0h8.23v0a15.67,15.67,0,0,1-1.92,6.85,11.08,11.08,0,0,1-4.47,4.38,13.47,13.47,0,0,1-6.5,1.51,16.13,16.13,0,0,1-6.81-1.3,9.46,9.46,0,0,1-4.31-3.79,11.54,11.54,0,0,1-1.48-6v0a17.31,17.31,0,0,1,1-5.76,18.41,18.41,0,0,1,2.83-5.17l10.49-13.24H322.18v-7.73h25.19Z"/><path d="M312.48,204.48q3.25,3.21,3.25,8.9v19.36q0,5.74-3.27,8.92T303,244.84q-6.24,0-9.5-3.16t-3.25-8.94V213.38q0-5.74,3.27-8.92t9.48-3.18Q309.23,201.28,312.48,204.48Zm-13.07,6.19a8.35,8.35,0,0,0-1.14,4.76v15.26a8.35,8.35,0,0,0,1.14,4.76,4.68,4.68,0,0,0,7.15,0,8.35,8.35,0,0,0,1.14-4.76V215.43a8.35,8.35,0,0,0-1.14-4.76,4.68,4.68,0,0,0-7.15,0Z"/><path d="M409.24,257.35l8.16,22.73a11,11,0,0,0,1.39,2.73,6.81,6.81,0,0,0,1.83,1.84l.05,0a3.28,3.28,0,0,0,2.84.52,4.79,4.79,0,0,0,2.51-2.15,4.24,4.24,0,0,0,.66-3.41,6.22,6.22,0,0,0-2.3-3.27l0,0,4.48-6.9h0a15.7,15.7,0,0,1,4.7,5.34,11.14,11.14,0,0,1,1.24,6.14,13.42,13.42,0,0,1-2.27,6.27,16.3,16.3,0,0,1-4.8,5,9.43,9.43,0,0,1-5.53,1.54,11.5,11.5,0,0,1-5.84-2l0,0a17.16,17.16,0,0,1-4.28-4,17.88,17.88,0,0,1-2.79-5.19l-5.4-16-7.93,12.21-6.49-4.21,13.72-21.14Z"/><path d="M307.62,147l-8,.05-.19-33.17-5.17,2-.05-8.53,6.34-2.91,6.85,0Z"/><path d="M315.45,133l13-28.73,9.08,0L324.88,132.6l19.13-.11.05,7.73-28.57.17Zm17.13-11.24,8,0,.15,25.08-8,0Z"/><path d="M410.55,126.53l21.5,1.15,2.28,5.78-21.19-1,4.8,12.16L413,146.54l-7.16-18.16Zm11.39,8.14,2,5.1L408,146.06l-2-5.1Z"/><path d="M296.66,344.91l4.9,1.36-5.63,20.24,3.5-.32-1.45,5.2-4.37.68-4.18-1.17Z"/><path d="M289,344.61a7.55,7.55,0,0,1,.48,6l-3.29,11.82a7.55,7.55,0,0,1-3.51,4.89,10,10,0,0,1-11.57-3.21,7.54,7.54,0,0,1-.47-6L274,346.26a7.46,7.46,0,0,1,3.5-4.89A9.94,9.94,0,0,1,289,344.61Zm-9,1.55a5.28,5.28,0,0,0-1.5,2.71l-2.6,9.31a5.36,5.36,0,0,0-.11,3.1,2.56,2.56,0,0,0,1.9,1.62,2.6,2.6,0,0,0,2.47-.4,5.32,5.32,0,0,0,1.5-2.71l2.59-9.32a5.28,5.28,0,0,0,.11-3.1,3,3,0,0,0-4.36-1.21Z"/><path d="M365.24,341.3l5-1.1,4.56,20.5,2.94-1.93,1.17,5.27-3.53,2.65-4.24.95Z"/><path d="M361.38,346.86,355,360.75a7.06,7.06,0,0,0-.58,1.85,4.28,4.28,0,0,0,0,1.64v0a2.07,2.07,0,0,0,1.06,1.49,3,3,0,0,0,2.08.15,2.68,2.68,0,0,0,1.81-1.25,4,4,0,0,0,.42-2.5v0l5.09-1.13v0a10,10,0,0,1-.25,4.5,7.08,7.08,0,0,1-2.16,3.32,8.59,8.59,0,0,1-3.81,1.83,10.14,10.14,0,0,1-4.39.13,6,6,0,0,1-3.18-1.75,7.37,7.37,0,0,1-1.75-3.51v0a10.84,10.84,0,0,1-.17-3.69,11.52,11.52,0,0,1,1-3.59l4.66-9.63-9,2-1.07-4.78,15.58-3.47Z"/><path d="M435,190l-1.93-4.7,19.44-8-2.4-2.57,5-2,3.21,3,1.64,4Z"/><path d="M439.05,198.2a7,7,0,0,1,1.29-3.77,7.23,7.23,0,0,1,3.25-2.47l.41-.17a7.32,7.32,0,0,1,7.56,1.31,6.38,6.38,0,0,1,1.08-3.21,5.47,5.47,0,0,1,2.49-2.07l.65-.26a7,7,0,0,1,3.82-.5,6.65,6.65,0,0,1,3.36,1.65,9.49,9.49,0,0,1,2.41,3.56,9.34,9.34,0,0,1,.78,4.22,6.58,6.58,0,0,1-1.23,3.53,6.92,6.92,0,0,1-3.07,2.33l-.65.27a5.45,5.45,0,0,1-3.25.27,6.29,6.29,0,0,1-3-1.57,7.42,7.42,0,0,1-1.36,3.81,6.94,6.94,0,0,1-3.08,2.48l-.41.17a7.32,7.32,0,0,1-4.05.52,6.92,6.92,0,0,1-3.57-1.78,11.4,11.4,0,0,1-3.41-8.32Zm6.45,4.17a3.06,3.06,0,0,0,1.56.69,3.51,3.51,0,0,0,1.78-.26l.24-.1a3,3,0,0,0,1.31-1,2.86,2.86,0,0,0,.52-1.53,4.42,4.42,0,0,0-1.38-3.36,2.81,2.81,0,0,0-1.45-.72,3,3,0,0,0-1.65.21l-.26.1a3.35,3.35,0,0,0-1.44,1.06,3,3,0,0,0-.61,1.58,4.2,4.2,0,0,0,1.38,3.34Zm10.57-4.64a2.68,2.68,0,0,0,1.39.54,3.38,3.38,0,0,0,1.62-.27l.24-.1a3.1,3.1,0,0,0,1.25-.9,2.64,2.64,0,0,0,.53-1.33,3.54,3.54,0,0,0-1.17-2.83,2.53,2.53,0,0,0-1.31-.56,3.1,3.1,0,0,0-1.53.23l-.26.11a3.39,3.39,0,0,0-1.32.93,2.67,2.67,0,0,0-.6,1.35,3.1,3.1,0,0,0,.23,1.56A3,3,0,0,0,456.07,197.73Z"/><path d="M224.28,146.05a5,5,0,0,1-3,.43A7.55,7.55,0,0,1,218,145h0a10.76,10.76,0,0,1-1.81-1.67,15.87,15.87,0,0,1-1.63-2.18l-.25-.41c-.08-.13-.15-.27-.22-.4l-4.89-8.89,2.66-3.67,5.59,10.38-1,.51a2.62,2.62,0,0,1-.23-1.49,3.22,3.22,0,0,1,.65-1.55,5.77,5.77,0,0,1,2.37-2,4.81,4.81,0,0,1,2.87-.26,8.4,8.4,0,0,1,3.17,1.49h0a7.77,7.77,0,0,1,2.41,2.66,5,5,0,0,1,.56,3,7.91,7.91,0,0,1-3.95,5.46Zm-.09-6.25a2.45,2.45,0,0,0-1.09-1.5h0a3.07,3.07,0,0,0-2-.72,2.24,2.24,0,0,0-1.92,2.66,3.17,3.17,0,0,0,1.31,1.66h0a2.45,2.45,0,0,0,1.76.56,2.47,2.47,0,0,0,1.92-2.66Z"/><path d="M203.26,195.6l-1.34,4.34-18-5.53.2,3.14-4.62-1.43-.49-3.92,1.14-3.71Z"/><path d="M204.91,188.19a5.74,5.74,0,0,1-3.1,1.58,8.64,8.64,0,0,1-4-.37h0a13.19,13.19,0,0,1-2.56-1.13,18.58,18.58,0,0,1-2.54-1.75l-.41-.34-.39-.36-8.49-7.74,1.51-4.92,9.79,9.1-.91.92a3,3,0,0,1-.8-1.52,3.8,3.8,0,0,1,.14-1.9,6.43,6.43,0,0,1,1.81-3,5.33,5.33,0,0,1,3-1.33,9.34,9.34,0,0,1,3.94.44h0a9,9,0,0,1,3.57,2,5.72,5.72,0,0,1,1.7,3,8,8,0,0,1-.31,3.91A7.88,7.88,0,0,1,204.91,188.19Zm-2.38-6.67a2.83,2.83,0,0,0-1.72-1.22h0a3.57,3.57,0,0,0-2.39-.05,2.27,2.27,0,0,0-1.32,1.55,2.2,2.2,0,0,0,.24,2,3.57,3.57,0,0,0,2,1.3h0a2.81,2.81,0,0,0,2.09,0,2.8,2.8,0,0,0,1.09-3.56Z"/></g></svg>